<?xml version="1.0" encoding="UTF-8"?>
<svg version="1.1" xmlns="http://www.w3.org/2000/svg" width="480" height="480">
<path d="M0 0 C0.70204559 0.00021149 1.40409119 0.00042297 2.12741089 0.00064087 C13.63875435 0.03515347 24.37656905 1.07083874 35.4375 4.375 C36.41444824 4.64787842 36.41444824 4.64787842 37.41113281 4.92626953 C58.13212452 10.76089201 75.50611571 22.18275604 91.4375 36.375 C92.10523438 36.96925781 92.77296875 37.56351563 93.4609375 38.17578125 C108.02028767 51.94906322 120.05160982 71.81883864 125.18359375 91.19140625 C127.09816267 94.5254998 130.07827532 95.09965401 133.5625 96.1875 C165.46140646 107.21303369 192.18363454 130.09056446 207.4375 160.375 C222.6985252 192.85046162 225.68930253 230.52488648 213.70141602 264.51318359 C206.74480713 283.29083485 196.15128175 298.79131418 182.4375 313.375 C181.9115625 313.96539062 181.385625 314.55578125 180.84375 315.1640625 C168.57096954 328.37608636 150.81959382 338.83489056 133.5625 343.75 C128.99080727 345.27073298 128.99080727 345.27073298 125.78515625 348.671875 C124.56875638 351.52763465 124.56875638 351.52763465 123.6171875 354.671875 C117.52605187 373.79239345 106.1647996 389.1123143 92.4375 403.375 C91.58478516 404.32246094 91.58478516 404.32246094 90.71484375 405.2890625 C75.33498514 421.88829609 53.77095051 431.30510476 32.4375 437.375 C31.19484375 437.73722656 29.9521875 438.09945313 28.671875 438.47265625 C-3.4883603 446.08768994 -39.76460085 439.21807629 -67.87207031 422.43408203 C-76.51369935 417.01995916 -84.15958295 410.34822867 -91.5625 403.375 C-92.28824219 402.7253125 -93.01398438 402.075625 -93.76171875 401.40625 C-107.3588875 388.7123043 -117.61296552 371.21568207 -123.4777832 353.63061523 C-125.32998295 348.01613821 -125.32998295 348.01613821 -129.85546875 344.40234375 C-131.14358433 344.00485759 -132.44310104 343.64303309 -133.75 343.3125 C-135.18939813 342.85899327 -136.62553717 342.395039 -138.05859375 341.921875 C-138.79964355 341.68017578 -139.54069336 341.43847656 -140.30419922 341.18945312 C-156.14081172 335.47800023 -169.46372851 324.77454302 -181.5625 313.375 C-182.46548828 312.55128906 -182.46548828 312.55128906 -183.38671875 311.7109375 C-205.60329747 290.68545741 -218.76005038 258.9885907 -219.94140625 228.69921875 C-220.3362417 213.59057238 -219.67574878 198.996044 -215.5625 184.375 C-215.07136719 182.49167969 -215.07136719 182.49167969 -214.5703125 180.5703125 C-209.69392432 164.01906796 -200.82839367 148.38484005 -189.5625 135.375 C-189.12969727 134.86678711 -188.69689453 134.35857422 -188.25097656 133.83496094 C-172.8846721 115.88702753 -151.64593629 100.63491493 -128.5625 94.375 C-127.5725 94.375 -126.5825 94.375 -125.5625 94.375 C-125.376875 93.47974609 -125.376875 93.47974609 -125.1875 92.56640625 C-118.0729394 62.64078573 -95.85590194 35.86807608 -70.20629883 19.65576172 C-48.41159789 6.45602866 -25.49046659 -0.0711593 0 0 Z " fill="#F6CEDA" transform="translate(239.5625,19.625)"/>
<path d="M0 0 C7.26 0 14.52 0 22 0 C22 11.88 22 23.76 22 36 C27.94 36 33.88 36 40 36 C40 24.12 40 12.24 40 0 C47.59 0 55.18 0 63 0 C63.13887687 12.36004161 62.59976518 24.65696027 62 37 C62.72517822 37.05768555 63.45035645 37.11537109 64.19750977 37.17480469 C81.09785975 38.59923662 96.73283673 43.23843023 108.75 55.6875 C116.36250208 64.93747392 116.99422469 75.51251227 116 87 C115.36668523 90.23947337 114.43135682 93.03240246 113 96 C112.7215625 96.60972656 112.443125 97.21945313 112.15625 97.84765625 C108.91917508 104.1962299 103.69561644 108.85319154 98 113 C98.70125 113.21914062 99.4025 113.43828125 100.125 113.6640625 C110.3788295 117.09129356 118.97122381 122.52166464 124.22265625 132.26953125 C129.90833164 144.55792644 129.29873264 158.78661625 125.1875 171.515625 C120.62576974 183.90832553 113.54174187 192.06493606 101.5625 197.75 C87.92855653 203.49358116 74.78305562 205 60 205 C60 217.21 60 229.42 60 242 C52.41 242 44.82 242 37 242 C36.97277973 237.8957877 36.95305486 233.79175986 36.9375 229.6875 C36.92912109 228.53958984 36.92074219 227.39167969 36.91210938 226.20898438 C36.89187757 219.06715554 37.24139708 212.10219586 38 205 C31.73 205 25.46 205 19 205 C19 217.21 19 229.42 19 242 C11.74 242 4.48 242 -3 242 C-3 229.46 -3 216.92 -3 204 C-17.52 204 -32.04 204 -47 204 C-45.875 188.25 -45.875 188.25 -44.4375 182.625 C-44.16808594 181.54476562 -43.89867187 180.46453125 -43.62109375 179.3515625 C-43.41613281 178.57554687 -43.21117187 177.79953125 -43 177 C-42.37955811 176.9906543 -41.75911621 176.98130859 -41.11987305 176.97167969 C-38.30827323 176.91799005 -35.4983402 176.83434354 -32.6875 176.75 C-31.71103516 176.73582031 -30.73457031 176.72164062 -29.72851562 176.70703125 C-28.79072266 176.67480469 -27.85292969 176.64257812 -26.88671875 176.609375 C-26.02264404 176.58842773 -25.15856934 176.56748047 -24.26831055 176.54589844 C-21.88503288 176.191695 -21.88503288 176.191695 -20.38952637 174.28535461 C-18.75757236 171.60127916 -18.58344655 170.0124047 -18.49926758 166.88842773 C-18.46532394 165.84469498 -18.43138031 164.80096222 -18.39640808 163.7256012 C-18.37516373 162.57736374 -18.35391937 161.42912628 -18.33203125 160.24609375 C-18.29962845 159.02506454 -18.26722565 157.80403534 -18.23384094 156.54600525 C-18.13347301 152.36411604 -18.06138471 148.18260286 -18 144 C-17.98845634 143.24391701 -17.97691269 142.48783401 -17.96501923 141.70883942 C-17.80369375 130.89410864 -17.72978125 120.08024708 -17.70483398 109.2644043 C-17.69581928 105.75512152 -17.67453335 102.24621505 -17.64331055 98.73706055 C-17.60495625 94.42535637 -17.58608548 90.11399062 -17.58155251 85.80212212 C-17.57670279 84.17901631 -17.56513516 82.55591525 -17.54651451 80.93290901 C-17.52221548 78.6854103 -17.52306373 76.43923962 -17.5300293 74.19165039 C-17.52416306 72.91931046 -17.51829681 71.64697052 -17.51225281 70.33607483 C-18.08780744 66.39941802 -19.18074866 64.76032882 -22 62 C-24.85506049 61.04831317 -26.90937282 60.8099054 -29.88671875 60.68359375 C-31.154552 60.62643188 -31.154552 60.62643188 -32.44799805 60.56811523 C-33.51703369 60.52501221 -34.58606934 60.48190918 -35.6875 60.4375 C-39.090625 60.293125 -42.49375 60.14875 -46 60 C-46 52.08 -46 44.16 -46 36 C-30.82 36 -15.64 36 0 36 C0 24.12 0 12.24 0 0 Z " fill="#DB6A93" transform="translate(204,115)"/>
<path d="M0 0 C40.87810463 -0.64206447 40.87810463 -0.64206447 55.875 8.8125 C61.01486141 14.1035338 62.27578191 17.72515627 62.5 25.0625 C62.32616615 30.53247175 61.94885371 33.94722908 58 38 C56.7934375 39.2684375 56.7934375 39.2684375 55.5625 40.5625 C43.76036224 49.81849129 28.56951738 49.14918067 14.4375 49.0625 C9.673125 49.041875 4.90875 49.02125 0 49 C0 32.83 0 16.66 0 0 Z " fill="#F6CEDA" transform="translate(225,244)"/>
<path d="M0 0 C37.37017995 0 37.37017995 0 46.65625 8.51953125 C51.11457753 13.63883175 52.46940607 17.74364255 52.3125 24.40234375 C51.63346837 30.0467942 49.18333271 33.76162856 45.3125 37.8125 C41.29783646 40.46369291 37.63375678 41.81185724 33 43 C32.2575 43.20625 31.515 43.4125 30.75 43.625 C20.45785709 46.0001099 10.85421817 45 0 45 C0 30.15 0 15.3 0 0 Z " fill="#F6CEDA" transform="translate(226,177)"/>
</svg>
