<?xml version="1.0" encoding="utf-8"?>
<svg xmlns="http://www.w3.org/2000/svg" width="20" height="20" viewBox="0 0 20 20" fill="none">
<path d="M19.6344 10.0641C19.6344 15.4221 15.2908 19.7657 9.93275 19.7657C4.57469 19.7657 0.23112 15.4221 0.23112 10.0641C0.23112 4.70601 4.57469 0.362447 9.93275 0.362447C15.2908 0.362447 19.6344 4.70601 19.6344 10.0641Z" fill="white"/>
<path d="M16.3076 4.19733L15.7585 4.74648C18.4749 7.71738 18.4749 12.268 15.7585 15.2389L16.3076 15.788C19.3298 12.5096 19.3298 7.46294 16.3076 4.18452V4.19733Z" fill="#5A5564"/>
<path d="M4.75793 4.2449C7.72882 1.52844 12.2794 1.52844 15.2503 4.2449L15.7995 3.69575C12.5211 0.673601 7.47438 0.673601 4.19596 3.69575L4.75793 4.2449Z" fill="#5A5564"/>
<path d="M4.2448 15.2444C1.532 12.2753 1.532 7.72654 4.2448 4.75747L3.69565 4.20832C0.673499 7.48674 0.673499 12.5334 3.69565 15.8118L4.2448 15.2444Z" fill="#5A5564"/>
<path d="M15.244 15.7514C12.2731 18.4679 7.72252 18.4679 4.75162 15.7514L4.20247 16.3006C7.48089 19.3227 12.5276 19.3227 15.806 16.3006L15.244 15.7514Z" fill="#5A5564"/>
<path d="M13.4655 8.16765C13.3556 7.02176 12.3672 6.63736 11.1169 6.52021V4.94232H10.1504V6.49092C9.896 6.49092 9.63608 6.49092 9.37798 6.49092V4.94232H8.41879V6.53119H6.45833V7.56542C6.45833 7.56542 7.17223 7.55261 7.16124 7.56542C7.4285 7.53613 7.67195 7.72284 7.71039 7.9901V12.3394C7.7049 12.4309 7.6628 12.5151 7.59324 12.5755C7.52551 12.6359 7.43582 12.667 7.34429 12.6597C7.35711 12.6707 6.64138 12.6597 6.64138 12.6597L6.45833 13.8147H8.40049V15.4292H9.36699V13.8385H10.1395V15.4219H11.1078V13.8257C12.7406 13.7269 13.8792 13.3242 14.0219 11.7957C14.1373 10.5656 13.5588 10.0165 12.6344 9.79497C13.1964 9.51856 13.5442 9.00602 13.4655 8.16765ZM12.1109 11.6053C12.1109 12.8061 10.0534 12.6688 9.39811 12.6688V10.5381C10.0534 10.54 12.1109 10.3514 12.1109 11.6053ZM11.6624 8.60331C11.6624 9.70161 9.94543 9.56798 9.39994 9.56798V7.63132C9.94543 7.63132 11.6624 7.45925 11.6624 8.60331Z" fill="#F09242"/>
<path d="M9.99817 20C4.47556 19.9982 -0.00182993 15.5208 5.61071e-07 9.99817C0.00183106 4.47556 4.47922 -0.00182993 10.0018 5.61072e-07C15.5226 0.00183106 19.9982 4.47739 20 9.99817C20.0018 15.5208 15.5244 19.9982 10.0018 20H9.99817ZM9.99817 0.779792C4.90939 0.783453 0.787114 4.91305 0.790775 10.0018C0.794436 15.0906 4.92404 19.2129 10.0128 19.2092C15.0979 19.2056 19.2184 15.0833 19.2202 9.99817C19.222 4.90939 15.0979 0.781622 10.0092 0.779792C10.0055 0.779792 10.0018 0.779792 9.99817 0.779792Z" fill="#282138"/>
</svg>